Simulation
nRows=23
nColumns=15
endheader
time  TH_x TH_y TH_z SC_y  SC_z  SC_x  AC_y  AC_z  AC_x  GH_y  GH_z  GH_yy  EL_x  PS_y
1.9499999999999993  0.000000  0.000000  0.000000  -29.442546336015557  10.62992203591099  24.273705492869293  61.88656162119544  11.420426333756376  1.1697960035311534  48.071496698213444  58.64160193480321  -44.640598374614335  22.35323401424011  0.000000
1.9889999999999992  0.000000  0.000000  0.000000  -29.1430059666394  10.280988549687171  23.84892060930484  61.69567982671311  11.12918877699783  0.36880506237353744  48.47634169849265  57.7519447696199  -44.163741212496475  22.566097808587426  0.000000
2.027999999999999  0.000000  0.000000  0.000000  -28.79697919537897  9.878086345581847  23.383093067611494  61.49745559648283  10.802797014890603  -0.5004383857936677  48.922551111193194  56.76113520461455  -43.7338386025984  22.771164964343242  0.000000
2.0669999999999993  0.000000  0.000000  0.000000  -28.409376191404586  9.426079688471123  22.8763708526862  61.2928274791012  10.445210434604853  -1.4204732981762505  49.4077233873651  55.683538558923175  -43.354745441331204  22.95397925422672  0.000000
2.1059999999999994  0.000000  0.000000  0.000000  -27.987997528140106  8.932356112399969  22.32643308560903  61.07799036528076  10.063521510822978  -2.373899618886353  49.91497563851084  54.53488260643401  -42.9876230738456  23.10312776956966  0.000000
2.144999999999999  0.000000  0.000000  0.000000  -27.542039826277616  8.404442951620506  21.72845908349606  60.848118221812605  9.667739920784356  -3.343397482128008  50.4167725597913  53.33176329856599  -42.5712134458157  23.211592230060713  0.000000
2.1839999999999993  0.000000  0.000000  0.000000  -27.083243473191896  7.848208126531845  21.07360576884155  60.60168786646461  9.269188980340779  -4.310371659676422  50.88293219690541  52.09168913881667  -42.05252939925047  23.27959615388357  0.000000
2.2229999999999994  0.000000  0.000000  0.000000  -26.629225743565595  7.26823620907372  20.347446235099426  60.343781120970576  8.877881443446205  -5.25240842259771  51.28580379468226  50.83312454979809  -41.40516470544096  23.31679765978862  0.000000
2.261999999999999  0.000000  0.000000  0.000000  -26.204812988211028  6.669100719946887  19.529460162093347  60.085708419609425  8.50066220837632  -6.140575268633647  51.59931543132868  49.573493780134726  -40.624212867070774  23.34075841328664  0.000000
2.3009999999999993  0.000000  0.000000  0.000000  -25.83797831313248  6.057576491298297  18.594915230597522  59.840712059642996  8.142274808723041  -6.938985297201862  51.79340543770393  48.3242391061281  -39.70301804526114  23.371921005760242  0.000000
2.339999999999999  0.000000  0.000000  0.000000  -25.55132148227098  5.4437703770910035  17.520806039660766  59.6169494839511  7.809199810434648  -7.609954808899365  51.83176135863493  47.08455021478011  -38.611903630660194  23.42946398238084  0.000000
2.378999999999999  0.000000  0.000000  0.000000  -25.355150077477305  4.839127147600613  16.29320263987726  59.412594027842175  7.5127290347490625  -8.123428786464613  51.67740921211469  45.84005724483837  -37.296841508549925  23.530757409666204  0.000000
2.4179999999999993  0.000000  0.000000  0.000000  -25.246988301355728  4.25397867169505  14.911339887283638  59.21638292509474  7.267478756549692  -8.463383823722323  51.29956437626096  44.568471557368845  -35.69599371841638  23.692200701227915  0.000000
2.456999999999999  0.000000  0.000000  0.000000  -25.216378195652428  3.6961493378321917  13.3873476039607  59.013374017663594  7.086613344325601  -8.629748649132308  50.67556534782108  43.24967747640001  -33.76093041059923  23.928582631164264  0.000000
2.495999999999999  0.000000  0.000000  0.000000  -25.251198859877462  3.1704351724176183  11.743759378073719  58.79076400383881  6.977839881793748  -8.63529847364945  49.790269234737025  41.872674412750065  -31.471126062219504  24.25071960736369  0.000000
2.5349999999999993  0.000000  0.000000  0.000000  -25.341270498161155  2.678963148249881  10.009943155712504  58.54159093800723  6.941637105768339  -8.50070312669023  48.63561823140168  40.43817789826929  -28.83855168083513  24.66155536769222  0.000000
2.573999999999999  0.000000  0.000000  0.000000  -25.478751998814204  2.2217621115086  8.219290954580456  58.26518584945356  6.972097522924846  -8.249795068577138  47.21367884978364  38.95606731164207  -25.906259871815205  25.151296279882374  0.000000
2.612999999999999  0.000000  0.000000  0.000000  -25.65681425949973  1.797838794697149  6.406717577653328  57.966257080291086  7.058797051589977  -7.907136894653118  45.541077555959326  37.44101994905854  -22.744759216027585  25.693707641722508  0.000000
2.6519999999999992  0.000000  0.000000  0.000000  -25.869336457480838  1.405868765867443  4.607186461527383  57.65180919684414  7.1891073517855215  -7.497465152680817  43.65330996177322  35.90702459445777  -19.445557961896505  26.24796202587793  0.000000
2.690999999999999  0.000000  0.000000  0.000000  -26.111296583679746  1.0452045414875613  2.8548300566600897  57.32715740222021  7.35093785455766  -7.046806262120505  41.605747452524575  34.36270921021862  -16.11052822333263  26.76701726495193  0.000000
2.729999999999999  0.000000  0.000000  0.000000  -26.378863931315728  0.7171315519294705  1.1829393788845204  56.992346502787264  7.5347321787534725  -6.583452318046703  39.470134843056215  32.808811641919235  -12.838185990819847  27.20830137332151  0.000000
2.768999999999999  0.000000  0.000000  0.000000  -26.66877524432023  0.4251732473947879  -0.37610858081821746  56.64156415202224  7.734150872562951  -6.138086853296147  37.32774227786734  31.238974216608533  -9.713064396020826  27.541442214323776  0.000000
2.807999999999999  0.000000  0.000000  0.000000  -26.97669102637896  0.1742681766962783  -1.7914843632168256  56.265254914304904  7.944711031580211  -5.741768146271174  35.26071182532666  29.642972737477653  -6.800890149883112  27.750585348681597  0.000000
